<svg version="1.1" id="Layer_1" xmlns="http://www.w3.org/2000/svg" xmlns:xlink="http://www.w3.org/1999/xlink" x="0px" y="0px"
	 width="100%" viewBox="0 0 272 272" enable-background="new 0 0 272 272" xml:space="preserve">
<path fill="#000000" opacity="1.000000" stroke="none" 
	d="
M152.000000,273.000000 
	C101.333336,273.000000 51.166668,273.000000 1.000000,273.000000 
	C1.000000,182.333328 1.000000,91.666664 1.000000,1.000000 
	C91.666664,1.000000 182.333328,1.000000 273.000000,1.000000 
	C273.000000,91.666664 273.000000,182.333328 273.000000,273.000000 
	C232.833328,273.000000 192.666672,273.000000 152.000000,273.000000 
M185.367722,135.195663 
	C181.952713,132.961243 181.373001,130.280930 182.882996,126.330223 
	C186.623474,116.543602 189.897705,106.577637 193.285187,96.658424 
	C193.799316,95.152939 194.712219,93.347237 193.125427,92.011436 
	C191.729843,90.836632 190.254211,92.018196 188.915741,92.542847 
	C180.241135,95.943092 171.436691,99.068306 162.980331,102.949364 
	C157.308853,105.552299 152.679245,106.090576 148.604553,100.590233 
	C146.553070,97.820976 144.410309,97.794388 142.203140,100.621254 
	C133.091599,112.290985 122.060539,121.204437 107.417122,125.092827 
	C103.631813,126.097984 102.934357,128.420898 106.292336,131.044174 
	C109.616447,133.640961 109.285133,135.863617 106.369476,138.740631 
	C100.682259,144.352448 95.513634,150.495621 89.749062,156.021042 
	C86.189247,159.433151 87.156639,161.515945 90.194221,164.527161 
	C93.390266,167.695450 95.616371,167.939560 98.724754,164.470779 
	C105.280594,157.154831 112.253929,150.213486 118.827515,142.912750 
	C121.671509,139.754150 123.781425,139.393265 126.943542,142.580673 
	C133.392273,149.080978 140.019363,155.428818 146.901306,161.465149 
	C150.663254,164.764862 150.213928,166.962051 146.910233,170.256821 
	C139.838654,177.309296 133.150024,184.746033 126.312958,192.033295 
	C122.234146,196.380661 126.608971,198.306046 128.817474,200.924881 
	C131.410797,203.999969 133.277847,202.393738 135.287155,200.214508 
	C140.253891,194.827713 145.283035,189.498276 150.305527,184.163147 
	C155.430756,178.718918 155.437195,178.732803 161.540939,182.760513 
	C161.767227,182.909821 162.178040,182.779510 162.508255,182.765533 
	C162.771088,182.569824 163.140610,182.429840 163.277267,182.168228 
	C163.738541,181.285202 164.300018,180.397278 164.499741,179.443497 
	C167.175980,166.662689 174.606476,156.886810 184.016663,148.339233 
	C184.753906,147.669571 185.392731,146.890793 186.069824,146.155823 
	C191.078400,140.719009 191.077789,140.718445 185.367722,135.195663 
z"/>
<path fill="#000000" opacity="1.000000" stroke="none" 
	d="
M172.838791,120.729202 
	C170.365814,127.574364 168.043808,134.061523 165.254242,141.854965 
	C158.126999,135.110626 151.907394,129.225143 144.791534,122.491554 
	C155.716736,118.041435 165.374481,114.107582 175.616058,109.935913 
	C175.786636,114.440102 173.872635,117.274513 172.838791,120.729202 
z"/>
<path fill="#000000" opacity="1.000000" stroke="none" 
	d="
M151.551880,144.438538 
	C154.092987,146.863495 156.408249,149.015381 158.661835,151.230011 
	C160.017090,152.561813 161.168350,154.007828 159.432571,155.890610 
	C157.342484,156.481537 156.346207,154.830612 155.213135,153.780579 
	C148.016525,147.111206 140.884872,140.371521 133.756424,133.628967 
	C132.582916,132.518997 130.758850,131.255264 132.207352,129.499283 
	C134.006027,127.318817 135.507553,129.419556 136.742828,130.549606 
	C141.649185,135.038071 146.456238,139.635086 151.551880,144.438538 
z"/>
</svg>