<svg version="1.1" id="Layer_1" xmlns="http://www.w3.org/2000/svg" xmlns:xlink="http://www.w3.org/1999/xlink" x="0px" y="0px"
	 width="100%" viewBox="0 0 512 512" enable-background="new 0 0 512 512" xml:space="preserve">
<path fill="#000000" opacity="1.000000" stroke="none" 
	d="
M1.000000,367.000000 
	C1.000000,255.645767 1.000000,144.291550 1.274938,32.609936 
	C9.753881,32.411049 17.957846,32.542500 26.162046,32.657009 
	C26.482899,32.661488 26.813145,32.525032 27.127003,32.418770 
	C32.067184,30.746214 37.213802,30.452538 42.356567,30.102688 
	C51.926071,29.451698 60.966267,26.721601 69.572296,22.656389 
	C75.586876,19.815296 75.731522,18.220482 70.228996,14.805461 
	C66.705353,12.618583 66.593636,10.244521 67.988983,6.869063 
	C68.604858,5.379229 70.270393,4.413594 70.128891,2.445326 
	C69.082108,1.961787 68.041054,1.480894 67.000000,1.000000 
	C188.687561,1.000000 310.375122,1.000000 432.336304,1.170196 
	C431.843048,1.982684 430.750641,2.742424 431.636536,3.767556 
	C435.122772,7.801684 434.515411,12.421041 433.642700,17.028833 
	C433.057281,20.119850 434.524323,21.679153 437.080627,22.791294 
	C440.729858,24.378901 444.543549,25.709457 447.939789,27.732609 
	C455.203674,32.059666 462.918274,34.843296 471.300415,35.785709 
	C476.628601,36.384773 481.861450,37.526600 486.592133,40.011612 
	C493.879944,43.839890 500.912750,44.857037 508.186340,40.029060 
	C509.458191,39.184811 511.378937,39.318165 513.000000,39.000000 
	C513.000000,157.354233 513.000000,275.708466 512.792480,394.170898 
	C510.864655,388.462677 511.472382,382.401794 510.802185,376.468628 
	C508.594086,356.920471 504.890656,337.731201 498.936615,318.969055 
	C497.675293,314.994385 495.605621,313.698822 491.495636,314.878265 
	C464.964478,322.492188 438.401733,329.996277 411.838379,337.497528 
	C408.076050,338.559937 406.831787,340.756592 407.685791,344.596771 
	C409.274780,351.742035 409.998077,359.040985 410.283844,366.328644 
	C410.976410,383.990448 410.246918,401.598022 406.163879,418.875275 
	C405.049774,423.589600 406.536530,424.759491 410.974426,424.744263 
	C442.614105,424.635681 474.254364,424.644257 505.894196,424.715240 
	C508.740753,424.721619 511.108887,424.161377 513.000000,422.000000 
	C513.000000,452.315033 513.000000,482.630035 513.000000,512.972534 
	C342.454651,512.972534 171.909317,512.972534 1.000000,512.972534 
	C1.000000,472.646515 1.000000,432.291901 1.199223,391.829407 
	C2.534700,400.603027 3.503179,409.510437 4.866292,418.357025 
	C5.772306,424.237030 7.428486,425.222656 12.755212,424.655182 
	C17.671267,424.131439 16.638056,420.465332 16.635439,417.477478 
	C16.624226,404.674255 16.563202,391.900452 18.226786,379.138367 
	C20.230318,363.768341 23.321356,348.680084 28.094402,333.942413 
	C29.149284,330.685303 28.054939,328.794250 24.896070,327.913330 
	C20.894857,326.797455 16.892143,325.684875 12.873721,324.633392 
	C9.005629,323.621216 6.850722,325.055359 6.287930,329.120605 
	C5.400589,335.530151 4.644350,341.983856 3.248686,348.289642 
	C1.877435,354.485138 3.498086,360.984772 1.000000,367.000000 
M191.789291,362.223114 
	C185.515579,375.844421 185.227448,389.465057 193.289856,402.319672 
	C202.684555,417.298523 216.728546,423.678528 234.236893,421.422180 
	C250.366547,419.343536 263.584473,406.859528 267.584015,390.269348 
	C271.945343,372.178406 275.972870,354.007111 280.155548,335.873047 
	C297.259277,261.719727 314.374969,187.569168 331.455841,113.410583 
	C332.722931,107.909439 333.904327,102.378685 334.830811,96.812630 
	C335.395966,93.417259 333.591461,90.901711 330.413910,89.841690 
	C327.213440,88.774033 324.982697,90.587578 323.423981,93.227676 
	C322.410034,94.944977 321.561584,96.762695 320.684174,98.557487 
	C277.829742,186.217346 234.980255,273.879608 191.789291,362.223114 
M467.292084,251.153503 
	C450.921021,225.728592 431.010712,203.493469 407.343384,184.645645 
	C400.752197,179.396667 400.636536,179.359009 395.121277,185.985062 
	C383.615509,199.808121 372.072693,213.602570 360.742126,227.568588 
	C350.963745,239.621338 350.676727,236.655289 361.099792,248.266678 
	C378.559418,267.716888 391.633972,289.777100 400.071747,314.556274 
	C402.305756,321.116974 403.241180,321.719116 408.299957,319.702393 
	C432.729095,309.963623 457.118835,300.126038 481.552856,290.399658 
	C485.709198,288.745148 486.673004,286.530823 484.605255,282.337311 
	C479.444153,271.870331 473.986115,261.588379 467.292084,251.153503 
M159.888824,144.476364 
	C141.203094,151.779510 123.643730,161.178238 107.227509,172.718018 
	C100.458649,177.476212 100.334930,177.846527 105.004288,184.826935 
	C110.001633,192.297653 115.070312,199.720612 120.097748,207.171249 
	C124.182892,213.225418 124.143814,213.168457 130.771729,209.666367 
	C158.430542,195.051895 187.801315,186.965851 219.183777,186.610947 
	C225.034683,186.544785 225.908798,185.918503 225.568832,179.869812 
	C224.785431,165.931442 223.623001,152.014832 222.737503,138.081558 
	C222.258484,130.544373 221.061966,129.354279 213.605652,130.490250 
	C195.478409,133.251984 177.746460,137.578491 159.888824,144.476364 
M104.603745,226.054047 
	C106.694534,223.681061 105.339714,221.710190 103.783630,219.869003 
	C97.655861,212.618622 91.422485,205.456696 85.351730,198.159271 
	C82.337303,194.535736 79.810364,195.022491 76.698486,198.151947 
	C69.761414,205.128143 63.108540,212.335312 56.942612,220.006104 
	C38.929169,242.416016 25.292248,267.226196 15.605049,294.286102 
	C13.885201,299.090271 15.162386,301.378784 19.774719,302.824890 
	C23.896133,304.117065 27.914051,305.774963 31.898062,307.459686 
	C35.853401,309.132263 38.325882,308.196045 40.284389,304.211029 
	C55.459389,273.334351 76.832420,247.510574 104.603745,226.054047 
M326.952667,218.477112 
	C328.443054,219.538712 329.930939,220.603806 331.424225,221.661301 
	C337.481415,225.950760 338.427948,225.801300 342.394196,219.755035 
	C353.251526,203.203583 364.046234,186.610748 374.975067,170.106674 
	C377.284454,166.619156 377.892761,164.053101 373.513702,161.650848 
	C364.463623,156.686172 355.322235,151.929199 345.786896,147.971939 
	C339.921997,145.537949 338.910339,146.042313 337.512299,152.084030 
	C332.946716,171.814499 328.510010,191.575012 323.867371,211.287155 
	C323.144928,214.354553 323.679871,216.479675 326.952667,218.477112 
M281.968292,144.569031 
	C283.133331,142.177429 284.350677,139.809601 285.451599,137.388840 
	C287.254730,133.424149 286.320374,131.119049 282.203308,130.524567 
	C272.338074,129.100052 262.424194,128.109039 252.424011,128.312927 
	C249.035934,128.381989 247.591354,130.286743 247.455826,133.317917 
	C246.713821,149.912262 246.043167,166.509811 245.366501,183.107010 
	C245.304962,184.616486 245.441071,186.080887 246.666351,187.239532 
	C250.778122,191.127670 259.700989,189.699142 262.237213,184.605530 
	C268.758026,171.509354 275.191193,158.369507 281.968292,144.569031 
z"/>
<path fill="#000000" opacity="1.000000" stroke="none" 
	d="
M250.118195,381.718872 
	C247.485931,399.854797 229.918808,404.307526 218.986862,397.971039 
	C210.784454,393.216644 206.986557,383.424622 209.593567,374.335785 
	C212.257812,365.047485 220.071899,359.462860 230.173630,359.627533 
	C239.584747,359.780945 247.122620,365.916229 249.397232,375.405823 
	C249.856110,377.320190 249.920197,379.329254 250.118195,381.718872 
z"/>
</svg>