<svg version="1.1" id="Layer_1" xmlns="http://www.w3.org/2000/svg" xmlns:xlink="http://www.w3.org/1999/xlink" x="0px" y="0px"
	 width="100%" viewBox="0 0 2101 2101" enable-background="new 0 0 2101 2101" xml:space="preserve">
<path fill="#FFFFFF" opacity="1.000000" stroke="none" 
	d="
M2.000000,806.000000 
	C2.000000,537.365112 2.000000,269.730164 2.000000,2.047623 
	C702.551819,2.047623 1403.103638,2.047623 2103.827637,2.047623 
	C2103.827637,702.468628 2103.827637,1402.937378 2103.827637,2103.703125 
	C1403.333374,2103.703125 702.666748,2103.703125 2.000000,2103.703125 
	C2.000000,1671.562134 2.000000,1239.281128 2.000000,806.000000 
z"/>
<path fill="#60D0E4" opacity="1.000000" stroke="none" 
	d="
M591.254517,1706.376221 
	C566.708740,1706.064331 543.322937,1702.319458 519.732422,1701.648682 
	C513.944580,1701.484131 510.457306,1698.668701 508.092102,1692.868652 
	C493.268768,1656.520020 478.003845,1620.351562 462.883942,1584.123901 
	C441.481934,1532.844116 421.111084,1481.156128 401.453400,1429.184326 
	C384.624207,1384.690430 368.281189,1340.024780 353.443542,1294.819580 
	C336.634552,1243.608398 322.168945,1191.842041 313.400391,1138.524414 
	C309.144135,1112.643921 304.862885,1086.802734 302.044250,1060.723511 
	C299.175018,1034.175781 298.851990,1007.538513 300.347351,980.951111 
	C302.529327,942.156372 310.633820,904.655029 326.990509,869.118042 
	C329.100708,864.533447 331.470306,863.422852 336.018341,863.675476 
	C357.897858,864.890625 379.786102,865.840088 401.644318,867.540649 
	C413.579224,868.469055 425.620819,868.108948 437.615143,868.170532 
	C454.281189,868.256165 470.949982,868.347229 487.613831,868.136292 
	C498.164215,868.002747 508.679260,870.811340 519.270569,868.264526 
	C522.614746,867.460327 525.757507,869.104858 528.884521,870.322632 
	C558.635254,881.908569 588.150574,894.112793 618.446594,904.266174 
	C644.954773,913.150085 671.798462,920.871948 699.435486,925.179932 
	C720.163086,928.410889 741.073364,930.083801 761.735352,924.065430 
	C770.803162,921.424255 779.188599,917.405945 786.179260,910.993164 
	C799.492676,898.780518 804.777954,883.808838 801.075317,865.905029 
	C799.597961,858.761536 799.635803,858.660217 806.716187,858.181274 
	C824.287781,856.992615 841.907288,855.967285 858.834106,850.628784 
	C864.572266,848.818970 867.553040,851.912842 870.753357,855.399231 
	C882.906982,868.639038 898.163025,876.148254 915.544434,879.854980 
	C935.125854,884.030823 953.839111,879.988892 972.275391,873.864136 
	C995.904602,866.014282 1014.566345,850.442871 1032.913940,834.384705 
	C1056.254639,813.956665 1077.665039,791.576294 1099.105591,769.228760 
	C1101.263184,766.979858 1103.492310,765.328186 1106.343994,764.219238 
	C1177.368286,736.600586 1247.543701,706.965149 1317.023560,675.666687 
	C1347.675903,661.858887 1378.279541,647.961365 1408.372681,632.956787 
	C1422.373535,625.975830 1436.519287,619.285278 1450.610962,612.486816 
	C1457.954956,608.943787 1457.897217,609.112732 1464.394531,614.992676 
	C1495.283081,642.946350 1517.841431,676.827087 1535.261475,714.361572 
	C1550.738159,747.708435 1560.769287,782.867188 1569.648315,818.402771 
	C1588.498901,893.846008 1604.714722,969.878967 1619.393799,1046.218628 
	C1630.678101,1104.904297 1641.218872,1163.743286 1650.354614,1222.820068 
	C1655.933838,1258.897705 1661.874512,1294.919189 1667.632080,1330.969360 
	C1667.841431,1332.280151 1667.711304,1333.647339 1667.941895,1334.952393 
	C1668.736938,1339.452637 1667.290894,1341.490967 1662.357544,1342.015869 
	C1651.337280,1343.188110 1641.018677,1346.905518 1631.240356,1352.159424 
	C1612.954590,1361.984863 1602.599731,1376.872437 1599.524780,1397.679443 
	C1597.066650,1414.310913 1601.670288,1428.526733 1610.658203,1441.818359 
	C1617.195923,1451.486450 1625.213257,1459.965454 1633.507202,1468.173950 
	C1654.878784,1489.325928 1669.854492,1514.383789 1675.274170,1543.971191 
	C1680.303833,1571.429932 1685.669189,1598.789185 1691.828857,1626.004517 
	C1696.156006,1645.123901 1700.507202,1664.237915 1704.891235,1683.344360 
	C1706.761841,1691.497803 1706.016113,1692.918701 1697.981079,1693.675049 
	C1673.858154,1695.946411 1649.706055,1697.910278 1625.589111,1700.240845 
	C1599.152710,1702.795654 1572.684326,1704.757568 1546.174683,1706.434326 
	C1526.301270,1707.691162 1506.442993,1709.183960 1486.554565,1710.345581 
	C1459.356201,1711.933960 1432.150269,1713.189819 1404.945312,1714.536255 
	C1389.669067,1715.292358 1374.354736,1715.215454 1359.134033,1716.361816 
	C1337.198975,1718.014160 1315.195190,1717.041870 1293.332275,1718.494873 
	C1268.373413,1720.153687 1243.434937,1719.378662 1218.507080,1720.246094 
	C1131.910522,1723.259033 1045.286499,1721.723633 958.682983,1721.433228 
	C924.434937,1721.318359 890.115295,1720.828979 855.888794,1719.407104 
	C834.941223,1718.536865 813.956726,1719.008301 793.079224,1717.568848 
	C766.880615,1715.762573 740.626099,1715.781982 714.435791,1714.052368 
	C698.191467,1712.979736 681.901245,1712.623535 665.643738,1711.726196 
	C642.433960,1710.444946 619.234436,1708.975464 596.034180,1707.529419 
	C594.733826,1707.448486 593.465698,1706.849243 591.254517,1706.376221 
z"/>
<path fill="#638B19" opacity="1.000000" stroke="none" 
	d="
M492.718689,577.294067 
	C470.857147,573.692444 450.088867,569.200989 429.582581,563.505432 
	C420.389252,560.952087 420.353210,560.998352 420.329529,551.496399 
	C420.269012,527.198303 419.033325,502.916107 420.021088,478.594421 
	C420.351654,470.455322 423.199341,463.800446 427.404053,457.335724 
	C440.497192,437.205048 456.219238,419.155243 471.976776,401.135345 
	C488.864716,381.822784 506.838318,363.526672 525.396667,345.860352 
	C563.525269,309.564423 603.482849,275.505524 649.580566,249.460236 
	C669.328674,238.302521 689.802917,228.902176 712.476379,225.115601 
	C729.022034,222.352417 745.655090,222.692596 762.217102,223.801956 
	C820.203064,227.685959 876.365234,241.371826 932.096191,256.839020 
	C992.329895,273.555908 1051.659546,293.107208 1109.832397,316.061981 
	C1117.855225,319.227783 1125.648315,323.005890 1133.762939,325.896576 
	C1138.103516,327.442871 1140.141479,330.268158 1141.348999,334.244995 
	C1141.542114,334.881104 1141.564087,335.587280 1141.843750,336.176392 
	C1146.071167,345.082703 1144.280396,352.010468 1137.987915,360.158478 
	C1120.632935,382.631012 1113.373657,409.114746 1111.696899,437.224030 
	C1111.538452,439.880341 1111.366089,442.598145 1111.737061,445.211151 
	C1112.613770,451.384918 1110.283569,454.658020 1104.355591,457.198883 
	C1060.373657,476.050507 1015.911011,493.632812 970.701721,509.325867 
	C925.783020,524.918091 880.303406,538.648499 834.117981,549.938721 
	C782.130798,562.647034 729.664612,572.634888 676.371216,578.365173 
	C646.608215,581.565491 616.813416,583.597595 586.940430,583.921936 
	C555.695801,584.261047 524.549011,581.861450 492.718689,577.294067 
z"/>
<path fill="#E1CAA3" opacity="1.000000" stroke="none" 
	d="
M756.127075,688.025146 
	C738.343262,691.392456 721.331177,694.089844 704.192688,696.034180 
	C689.386169,697.713928 674.653503,700.426025 659.807678,701.277283 
	C642.903381,702.246643 626.058289,704.333008 609.066406,704.065674 
	C587.747253,703.730164 566.384277,704.573364 545.109863,703.511902 
	C527.950317,702.655762 510.766754,701.093323 493.705994,698.425598 
	C487.274109,697.419861 484.440704,693.980103 482.486633,688.745056 
	C475.846497,670.955933 467.755920,653.821289 459.266388,636.859985 
	C452.708923,623.758789 445.241730,611.179382 437.567444,598.717407 
	C436.522552,597.020630 435.225128,595.479736 435.123993,593.233459 
	C437.184906,590.907715 439.237091,592.862915 441.297791,593.308594 
	C466.587128,598.778992 491.945251,603.498413 517.750488,606.302917 
	C550.253723,609.835327 582.806274,610.699341 615.313965,609.370911 
	C635.771423,608.534912 656.286438,606.650696 676.743408,604.474976 
	C709.774109,600.961975 742.519470,595.822510 775.039368,589.447388 
	C806.622009,583.255981 837.989746,575.875122 869.028198,567.241821 
	C928.303528,550.754456 986.711182,531.686768 1044.026855,509.245148 
	C1065.396973,500.877747 1086.638062,492.233795 1107.756470,483.266693 
	C1115.841431,479.833710 1116.218872,479.741089 1119.671143,487.450073 
	C1127.229370,504.327637 1139.698608,514.422546 1158.726685,516.463257 
	C1158.483032,523.175293 1155.191040,528.706543 1153.457764,534.611206 
	C1151.495850,541.295471 1148.334595,547.631287 1146.430176,554.327759 
	C1144.724365,560.325562 1141.259033,563.728455 1135.609619,566.230896 
	C1102.465576,580.911865 1068.941895,594.661743 1035.198486,607.886902 
	C1001.759705,620.992737 967.839600,632.783264 933.626404,643.650330 
	C880.434387,660.545593 826.402527,674.329163 771.714294,685.498535 
	C766.841187,686.493774 761.899658,687.153687 756.127075,688.025146 
z"/>
<path fill="#648C1A" opacity="1.000000" stroke="none" 
	d="
M889.181030,683.423340 
	C969.354248,660.724915 1046.645142,632.366150 1123.485474,600.959839 
	C1120.840454,603.881958 1118.126709,606.745483 1115.569336,609.742310 
	C1112.978760,612.778015 1110.621582,616.013000 1108.026733,619.044800 
	C1079.710571,652.128906 1051.002686,684.848389 1020.925415,716.373291 
	C1001.158020,737.092163 981.437317,757.799316 959.171753,775.884277 
	C955.582947,778.799194 951.609497,781.310852 947.580261,783.597290 
	C940.946289,787.361633 935.439087,787.984863 927.828796,782.866089 
	C898.610474,763.213013 859.461182,782.455078 856.613831,817.514587 
	C856.082397,824.058044 853.789551,825.862671 848.180603,827.142090 
	C834.492676,830.264404 820.560242,830.862854 806.676941,832.036499 
	C803.373047,832.315796 800.046631,832.674988 796.776123,832.848572 
	C786.624512,833.387451 776.627930,835.108948 766.348999,830.944580 
	C756.867188,827.103271 746.645325,829.248962 737.216858,833.355774 
	C733.437805,835.001831 729.814575,835.135376 725.647034,834.701416 
	C685.502197,830.521423 648.057983,816.738220 610.751892,802.591858 
	C577.539551,789.997803 544.844788,776.017456 510.965729,765.222290 
	C498.306213,761.188477 485.473999,757.695251 472.708862,753.995789 
	C470.490997,753.353027 468.056396,753.273621 466.209045,750.930359 
	C473.461700,746.779236 481.472839,744.639893 489.066833,741.565308 
	C499.747986,737.240662 499.815765,737.408081 496.711365,726.136047 
	C502.614929,724.079590 508.410400,726.224670 514.117249,726.720581 
	C547.601196,729.630249 581.070923,730.543396 614.713013,729.352051 
	C707.306702,726.072998 797.427673,708.520264 886.451294,684.101807 
	C887.092957,683.925842 887.753357,683.818298 889.181030,683.423340 
z"/>
<path fill="#E1CAA3" opacity="1.000000" stroke="none" 
	d="
M1370.434570,196.465515 
	C1379.886841,185.687256 1391.165039,177.905762 1400.092285,167.408203 
	C1411.433472,154.072113 1423.529175,141.536545 1430.135498,123.282913 
	C1436.676025,137.067902 1438.912720,150.158707 1438.038940,163.972473 
	C1454.354614,158.513504 1496.974976,113.585892 1508.375854,90.141235 
	C1511.488281,101.481163 1505.583252,138.533798 1497.078125,163.984848 
	C1488.690796,189.083450 1474.778564,210.936523 1456.597290,229.660217 
	C1438.734741,248.055893 1417.401367,262.145355 1393.866943,273.394745 
	C1407.276001,271.455048 1420.684937,269.515350 1434.639404,267.496765 
	C1433.520020,273.659210 1429.583862,276.916229 1426.601929,280.701141 
	C1419.001465,290.348236 1411.197388,299.834869 1403.583862,309.471954 
	C1400.216553,313.734009 1396.960938,314.321014 1391.586426,312.126068 
	C1350.186768,295.218719 1312.270874,302.608215 1277.431885,329.515625 
	C1260.732910,342.412933 1246.479126,357.650391 1233.927368,374.568878 
	C1232.238647,376.845123 1230.886475,379.679504 1226.933838,381.358337 
	C1225.664062,371.532715 1221.991089,362.816101 1217.395142,354.482269 
	C1212.953491,346.427826 1206.793579,339.843719 1198.667725,335.627838 
	C1187.197021,329.676544 1175.529053,331.201447 1164.024414,336.082703 
	C1161.680908,337.077026 1160.004517,339.801331 1155.713257,338.595978 
	C1159.653320,299.731537 1165.065308,260.656830 1160.538940,219.995728 
	C1170.593872,223.606201 1179.290527,227.756393 1185.848022,235.592270 
	C1190.378418,241.005722 1192.273071,241.244644 1196.470703,235.968140 
	C1216.087891,211.309341 1232.576660,184.871078 1240.724731,154.073059 
	C1243.942139,141.912003 1246.717041,129.553757 1246.151855,116.764412 
	C1245.990234,113.109245 1246.036743,109.430191 1246.248535,105.777199 
	C1246.474243,101.883919 1249.012329,101.302132 1251.752197,103.085670 
	C1255.382324,105.448761 1258.567505,108.457573 1259.962280,112.813812 
	C1260.949707,115.898033 1261.854614,119.008698 1263.127319,123.196716 
	C1267.554199,114.437187 1271.651367,106.516510 1275.582031,98.513985 
	C1284.255493,80.855293 1294.520264,64.182144 1306.687500,48.731308 
	C1312.053345,41.917305 1318.126709,35.694885 1325.835693,31.425009 
	C1338.486938,24.417599 1348.079712,28.282930 1351.713013,42.145401 
	C1354.698242,53.535610 1353.862183,64.965622 1352.574707,76.679886 
	C1350.533936,95.248268 1346.759033,113.357635 1342.018921,131.331497 
	C1335.824097,154.820541 1327.952759,177.739044 1317.855103,199.848053 
	C1315.674805,204.622040 1312.789795,209.074203 1309.325195,215.299149 
	C1326.725830,209.016373 1341.036621,201.738022 1348.491577,184.994095 
	C1353.408325,194.227509 1352.081299,203.194397 1351.267944,212.913284 
	C1357.479126,207.588501 1363.690430,202.263718 1370.434570,196.465515 
z"/>
<path fill="#60CFE3" opacity="1.000000" stroke="none" 
	d="
M1177.419434,543.458557 
	C1189.263794,510.443268 1202.189331,478.723969 1218.042358,448.283936 
	C1232.522827,420.479401 1248.828979,393.826599 1270.214966,370.660767 
	C1280.167358,359.879944 1291.173828,350.392670 1303.739014,342.537415 
	C1317.703003,333.807587 1332.960205,328.746490 1348.928711,328.679199 
	C1370.738037,328.587189 1390.112671,335.622711 1402.422729,355.677246 
	C1413.372925,373.516205 1417.303589,393.250275 1418.161987,413.721039 
	C1420.392090,466.901367 1410.651733,518.237915 1393.698975,568.408630 
	C1393.273682,569.667419 1392.674561,570.866394 1392.193359,572.107605 
	C1389.003418,580.335327 1389.005005,580.399902 1379.860596,580.173401 
	C1356.266113,579.588867 1332.716431,577.210022 1309.084106,578.212402 
	C1264.956421,580.084167 1220.841431,582.203430 1177.976807,594.262817 
	C1174.775391,595.163452 1172.266113,594.856079 1169.406250,593.741455 
	C1162.178101,590.924316 1162.064819,590.963867 1164.186646,584.010376 
	C1166.708618,575.745850 1169.372803,567.524292 1172.028809,559.301392 
	C1173.663574,554.239929 1175.398438,549.210693 1177.419434,543.458557 
z"/>
<path fill="#E1CAA3" opacity="1.000000" stroke="none" 
	d="
M1724.457642,1635.336426 
	C1713.860352,1614.927124 1709.485596,1593.441284 1706.006592,1571.777344 
	C1702.374268,1549.159790 1699.329590,1526.498779 1690.036377,1505.201416 
	C1683.183838,1489.497070 1674.228638,1475.207520 1663.081665,1462.318359 
	C1655.040894,1453.020508 1646.398560,1444.245239 1638.146484,1435.126709 
	C1632.530396,1428.920776 1628.318970,1422.018433 1625.691650,1413.836060 
	C1620.940552,1399.040527 1630.543335,1379.500122 1643.951050,1373.666748 
	C1652.012939,1370.159302 1660.206299,1367.143433 1668.689331,1366.446899 
	C1689.930786,1364.702637 1711.281982,1364.886353 1732.280884,1369.063843 
	C1757.697144,1374.120117 1777.950439,1388.420044 1795.727783,1406.550903 
	C1824.780396,1436.181641 1842.417236,1471.820923 1849.546875,1512.479248 
	C1854.469604,1540.551880 1852.011841,1567.994873 1839.240234,1594.082642 
	C1830.922974,1611.071777 1816.955200,1623.011108 1803.241211,1635.061523 
	C1794.279297,1642.936401 1784.145264,1649.303467 1773.256836,1654.614990 
	C1751.963867,1665.002197 1739.858643,1659.782227 1727.080444,1640.436401 
	C1726.168335,1639.055664 1725.546631,1637.483154 1724.457642,1635.336426 
z"/>
<path fill="#252122" opacity="1.000000" stroke="none" 
	d="
M1055.740723,1852.107178 
	C1046.400391,1850.393799 1037.974731,1848.566162 1030.398804,1844.019287 
	C1020.041687,1837.803345 1017.982361,1824.988037 1026.214111,1816.021973 
	C1030.541016,1811.308960 1036.017944,1808.230591 1041.949097,1805.760010 
	C1057.758057,1799.174683 1074.441895,1796.286621 1091.236084,1794.151245 
	C1134.574097,1788.641113 1178.170166,1788.913818 1221.728638,1789.405151 
	C1235.946655,1789.565552 1250.320923,1789.889160 1264.220215,1793.868408 
	C1264.855591,1794.050415 1265.557861,1794.007812 1266.185303,1794.207275 
	C1284.457764,1800.014282 1288.298340,1810.572266 1277.162842,1827.498047 
	C1273.315674,1833.345825 1267.556641,1837.577881 1261.458618,1841.192993 
	C1256.028320,1844.412109 1250.541870,1847.600952 1245.448853,1851.309448 
	C1236.720825,1857.665039 1236.366821,1865.443237 1243.969727,1873.099609 
	C1248.269287,1877.429077 1253.862793,1879.777710 1258.859131,1883.040161 
	C1268.589600,1889.394409 1271.627930,1898.457520 1268.532959,1909.750000 
	C1266.853882,1915.876343 1262.419800,1919.058105 1257.571655,1921.963501 
	C1247.760986,1927.842896 1236.910522,1931.076538 1225.916260,1933.859009 
	C1193.651123,1942.025391 1160.757935,1946.522583 1127.740112,1949.981812 
	C1093.118896,1953.609009 1058.433472,1956.650269 1023.752136,1959.670898 
	C997.272156,1961.977295 970.734375,1964.045410 944.140442,1963.165405 
	C927.252686,1962.606689 910.313049,1961.635010 893.701416,1957.981079 
	C887.496582,1956.616455 881.417847,1954.735840 875.865112,1951.661499 
	C863.358826,1944.737305 862.785156,1932.064209 874.781067,1923.804077 
	C882.561096,1918.447144 891.664062,1915.866089 900.834717,1914.186646 
	C921.763123,1910.353882 942.921936,1908.817749 964.187683,1907.938599 
	C983.840881,1907.126221 1003.522522,1908.229736 1023.109314,1907.056152 
	C1046.252075,1905.669434 1069.599854,1906.999146 1092.531616,1902.183838 
	C1097.782104,1901.081299 1102.841553,1899.546509 1107.858887,1897.817383 
	C1118.759033,1894.060669 1122.658936,1884.862061 1124.018799,1874.714844 
	C1124.772583,1869.089355 1119.627686,1866.125732 1114.983276,1864.053101 
	C1107.973999,1860.925171 1100.520752,1859.254883 1092.950073,1858.054932 
	C1080.821167,1856.132324 1068.707520,1854.113403 1055.740723,1852.107178 
z"/>
<path fill="#262122" opacity="1.000000" stroke="none" 
	d="
M297.864868,2036.070435 
	C280.841949,2033.922241 264.609283,2032.446411 248.914917,2027.990479 
	C239.307953,2025.262817 230.033173,2021.601685 222.089935,2015.274414 
	C211.656876,2006.964233 211.927429,1998.068604 222.758621,1990.276367 
	C232.158234,1983.514282 242.960434,1980.298096 254.047638,1977.822388 
	C286.792114,1970.510742 319.917908,1964.956665 353.087524,1960.467163 
	C417.602509,1951.734985 478.514343,1931.854736 537.701721,1905.641724 
	C550.748596,1899.863403 564.082947,1894.736694 577.166504,1889.037964 
	C592.980225,1882.150024 609.526489,1879.253784 626.660339,1879.253784 
	C647.295532,1879.253784 667.965881,1878.538330 688.548340,1880.181030 
	C710.023926,1881.895020 731.571350,1883.570068 752.353210,1889.936279 
	C756.135803,1891.095093 759.872498,1892.511841 763.457520,1894.180908 
	C768.041443,1896.314697 772.852051,1898.847046 772.648865,1904.795166 
	C772.458374,1910.371338 767.532227,1912.217651 763.257935,1913.971558 
	C757.743958,1916.234131 752.134583,1918.359863 746.409912,1919.997681 
	C716.345703,1928.597900 685.498474,1933.322632 654.651306,1937.887085 
	C606.117981,1945.068481 557.378418,1950.650024 508.633392,1956.188232 
	C491.511414,1958.133423 474.360260,1960.276855 457.968658,1966.121704 
	C451.988464,1968.254028 446.107574,1970.649536 441.348114,1974.962891 
	C435.532867,1980.233154 436.353271,1985.676758 443.382477,1989.034180 
	C448.895172,1991.666992 454.809906,1992.195923 460.871918,1992.112671 
	C477.833130,1991.879517 494.746918,1992.617188 511.401550,1996.116455 
	C515.920288,1997.065918 520.600220,1998.229492 524.602173,2000.405518 
	C529.462341,2003.048340 534.505005,2006.138306 534.378662,2013.069458 
	C534.243652,2020.477051 530.663208,2025.684570 524.468323,2029.189575 
	C520.096130,2031.663208 515.206665,2032.893677 510.330505,2033.986816 
	C493.759430,2037.701660 476.880493,2039.114258 459.992706,2040.009277 
	C440.408844,2041.047119 420.800751,2041.618530 401.169434,2041.350708 
	C366.969086,2040.883911 332.834717,2039.322266 297.864868,2036.070435 
z"/>
<path fill="#61D0E3" opacity="1.000000" stroke="none" 
	d="
M286.747162,737.118530 
	C277.858154,719.245361 268.837341,702.178345 262.079407,684.065125 
	C253.433029,660.890625 247.120163,637.234558 247.817032,612.226257 
	C248.310776,594.507874 253.225204,578.325684 264.308960,564.096008 
	C274.790314,550.639709 288.734131,542.936157 304.668121,538.171021 
	C306.571014,537.601929 308.559418,537.323730 310.499390,536.872803 
	C318.110809,535.103455 318.109497,535.097778 318.937225,525.264893 
	C319.439880,529.274658 319.201782,532.139771 320.238007,534.427673 
	C321.513885,537.244629 325.002960,536.356140 327.444977,536.745056 
	C348.120636,540.037903 364.244080,551.377808 378.787415,565.473206 
	C395.881439,582.040588 409.169678,601.513733 421.332062,621.834229 
	C439.149841,651.603577 453.227936,683.134583 465.558136,715.485718 
	C468.193451,722.400208 468.058929,722.621582 461.135925,725.430969 
	C438.325439,734.687439 415.984222,744.945679 394.014648,756.054016 
	C372.919037,766.720459 352.449402,778.433533 332.728973,791.464111 
	C324.793915,796.707336 324.775482,796.688049 319.184509,788.510376 
	C308.671265,773.133301 298.416962,757.592712 289.001068,740.635864 
	C288.231201,739.155090 287.740631,738.385315 286.747162,737.118530 
z"/>
<path fill="#E1CAA3" opacity="1.000000" stroke="none" 
	d="
M466.101135,1663.875732 
	C470.331238,1673.741821 474.183960,1682.939697 478.221130,1692.055786 
	C479.390778,1694.697021 479.769592,1696.770508 477.759064,1699.344482 
	C463.863281,1717.135132 448.237457,1732.890869 426.481384,1740.718506 
	C410.787506,1746.365234 394.770294,1748.630371 377.713013,1746.804443 
	C342.399628,1743.023926 324.677460,1721.375854 315.483521,1689.744751 
	C307.525543,1662.366211 308.729095,1634.598267 311.787292,1606.741089 
	C314.370392,1583.211670 319.902039,1560.351929 327.759216,1538.060791 
	C338.068634,1508.812622 353.297455,1482.574951 375.785614,1460.887329 
	C377.423676,1459.307373 378.711334,1457.187744 382.412537,1456.680786 
	C409.097626,1525.770020 436.988159,1594.660767 466.101135,1663.875732 
z"/>
<path fill="#648C1A" opacity="1.000000" stroke="none" 
	d="
M1404.232178,605.994202 
	C1402.442749,605.399353 1402.226929,604.406311 1402.884521,603.593872 
	C1416.945435,586.225098 1422.058960,565.054749 1427.665649,544.224182 
	C1433.275024,523.384216 1438.059448,502.327240 1440.436646,480.794281 
	C1441.324463,472.752869 1442.362061,471.937958 1450.623291,470.261536 
	C1484.171143,463.453705 1517.814819,457.060089 1551.973389,454.349152 
	C1568.823486,453.011841 1585.769897,452.319672 1602.644653,455.662842 
	C1618.429199,458.789978 1620.345825,466.532349 1610.858154,478.496399 
	C1599.775879,492.471222 1585.511230,502.926605 1571.067261,513.039612 
	C1535.582275,537.884583 1497.752197,558.773804 1459.367920,578.711487 
	C1441.369019,588.060608 1423.478149,597.619995 1404.232178,605.994202 
z"/>
<path fill="#040303" opacity="1.000000" stroke="none" 
	d="
M625.950317,877.846069 
	C589.309509,865.614441 554.633484,850.410156 519.091370,837.489807 
	C491.959595,827.626953 464.742432,818.142944 436.212189,812.968018 
	C431.877563,812.181763 427.616577,812.434143 423.334869,812.059265 
	C412.726654,811.130432 405.225677,802.448181 405.653961,791.738281 
	C406.073883,781.237366 413.404572,774.346619 424.499603,774.080750 
	C445.081451,773.587463 464.479340,779.596008 483.894287,785.214539 
	C523.748291,796.747620 561.970276,812.794739 600.587341,827.758179 
	C633.383667,840.466309 666.630676,851.848572 701.217163,858.750732 
	C711.297913,860.762451 721.478394,862.240479 731.848938,862.154663 
	C737.245117,862.109924 742.133911,861.343201 747.157104,858.951843 
	C757.080505,854.227600 767.624451,857.565308 772.386353,866.071594 
	C777.406189,875.038696 774.704529,886.195679 765.816650,892.440125 
	C757.301819,898.422363 747.398071,899.598877 737.390076,900.082581 
	C717.973694,901.021057 698.998352,897.719116 680.217651,893.401245 
	C662.125366,889.241638 644.246643,884.215881 625.950317,877.846069 
z"/>
<path fill="#040404" opacity="1.000000" stroke="none" 
	d="
M922.919678,814.025269 
	C924.609070,815.995728 926.085388,816.593140 927.861755,816.384216 
	C941.152710,814.820679 954.004639,812.044800 965.493408,804.542114 
	C977.242859,796.869263 987.813232,787.711365 997.831360,778.069702 
	C1017.731812,758.917175 1037.149048,739.259827 1055.798584,718.854065 
	C1083.797363,688.218567 1111.362549,657.206909 1137.809570,625.219849 
	C1145.089478,616.414978 1154.980591,616.624084 1162.030029,619.586853 
	C1169.382080,622.676880 1173.183960,630.855591 1172.370117,639.467468 
	C1171.901001,644.431213 1169.064331,648.112671 1166.063354,651.637939 
	C1149.282959,671.349792 1132.729614,691.268555 1115.482910,710.566223 
	C1095.776123,732.616577 1075.985718,754.645752 1055.200073,775.663940 
	C1032.791504,798.323364 1010.447266,821.344666 983.269836,838.509644 
	C963.270935,851.140930 941.209106,856.431396 917.579224,852.001343 
	C906.522278,849.928406 897.147827,844.210205 889.612671,835.779724 
	C881.369934,826.557495 881.489990,815.254211 889.745178,807.360535 
	C897.569702,799.878784 908.285583,800.319641 917.394714,808.555237 
	C919.119995,810.115112 920.681519,811.856018 922.919678,814.025269 
z"/>
<path fill="#658C1A" opacity="1.000000" stroke="none" 
	d="
M1402.422119,606.140747 
	C1403.474854,605.997375 1403.413208,605.937866 1403.443604,605.914917 
	C1385.038696,617.219666 1364.996704,625.327393 1345.483154,634.438843 
	C1294.893188,658.060852 1243.639893,680.205200 1192.153687,701.801575 
	C1176.261963,708.467529 1160.268677,714.891541 1142.473389,722.183777 
	C1148.607422,712.205688 1155.939941,705.681519 1162.011841,698.190002 
	C1170.997925,687.102783 1180.644287,676.547791 1189.550293,665.399292 
	C1199.286743,653.211243 1202.093018,639.308289 1197.962036,624.145569 
	C1195.645630,615.643005 1195.633667,615.632690 1203.793091,613.983337 
	C1229.575806,608.771545 1255.654785,606.433105 1281.901123,604.942200 
	C1303.876831,603.693970 1325.828003,604.060303 1347.778931,604.214600 
	C1362.691650,604.319336 1377.598511,605.799683 1392.497681,606.816528 
	C1395.518311,607.022644 1398.456299,607.236206 1402.422119,606.140747 
z"/>
<path fill="#668D1C" opacity="1.000000" stroke="none" 
	d="
M206.454468,766.439819 
	C221.001053,755.687866 236.277451,747.631958 251.737808,739.824280 
	C256.314087,737.513184 258.378693,737.854370 260.953827,742.561768 
	C271.809998,762.407532 283.333466,781.879883 296.585114,800.252563 
	C302.816193,808.891602 309.694031,817.080750 315.624969,825.912903 
	C318.830475,830.686401 321.208984,829.848022 325.080475,827.109619 
	C338.934509,817.310059 352.953003,807.734741 367.583954,799.112854 
	C370.673737,797.292053 373.504822,794.802856 377.659668,794.332825 
	C382.676117,827.549927 403.933685,840.684692 436.210968,839.915405 
	C434.020813,842.965942 431.751617,841.813232 429.823456,842.015442 
	C427.847198,842.222717 425.827332,842.113403 423.831940,842.022949 
	C404.248993,841.135498 384.648163,840.518799 365.088959,839.258057 
	C319.364136,836.310852 273.690460,832.718872 228.988403,821.834839 
	C216.415359,818.773560 203.956284,815.136536 192.795349,808.196594 
	C191.665421,807.493958 190.465500,806.890137 189.395050,806.107788 
	C181.757477,800.526001 180.816513,796.634155 185.422913,788.422852 
	C188.874985,782.269104 193.479858,777.009521 198.865707,772.455627 
	C201.148438,770.525513 203.522781,768.703674 206.454468,766.439819 
z"/>
<path fill="#272223" opacity="1.000000" stroke="none" 
	d="
M1862.963623,1597.041504 
	C1866.585571,1589.235840 1866.598145,1589.184204 1873.018433,1590.755981 
	C1888.861084,1594.634399 1904.460571,1599.272827 1919.483398,1605.711792 
	C1925.631104,1608.346802 1931.463135,1611.537598 1936.525146,1615.912109 
	C1944.803101,1623.065430 1944.618530,1632.750122 1936.056152,1639.734375 
	C1927.440796,1646.761963 1917.246582,1650.738647 1906.905640,1654.430054 
	C1878.001099,1664.748047 1848.007080,1670.579346 1817.922485,1675.959229 
	C1801.279053,1678.935425 1784.528076,1681.311157 1766.536987,1684.161865 
	C1808.371948,1664.863647 1842.574463,1639.079224 1862.963623,1597.041504 
z"/>
<path fill="#030303" opacity="1.000000" stroke="none" 
	d="
M1185.996460,358.178406 
	C1197.364380,364.504486 1199.907104,375.323761 1201.565796,386.145233 
	C1203.331543,397.665436 1202.643188,409.365967 1201.646729,420.978668 
	C1201.392456,423.942657 1200.375610,426.712097 1198.990356,429.387360 
	C1190.748047,445.302948 1182.770630,461.356750 1175.821045,477.880127 
	C1173.864990,482.530609 1170.736816,485.530212 1166.490967,487.712708 
	C1157.600220,492.282959 1150.635864,490.330963 1145.293213,481.643829 
	C1141.958130,476.221008 1139.460938,470.242950 1138.738770,464.030579 
	C1134.683838,429.145966 1140.167114,396.438934 1163.116821,368.529541 
	C1168.512329,361.967957 1175.242920,355.897064 1185.996460,358.178406 
z"/>
<path fill="#272223" opacity="1.000000" stroke="none" 
	d="
M234.597717,1655.439819 
	C225.838730,1651.960571 217.793686,1648.794189 210.273682,1644.486572 
	C192.208038,1634.137695 191.866043,1621.916992 209.675934,1611.118774 
	C225.148270,1601.737793 242.550079,1597.120239 259.772980,1592.278564 
	C268.686707,1589.772705 277.817596,1588.039307 288.140320,1585.659424 
	C284.320160,1613.454224 282.635315,1640.648315 286.071259,1668.707275 
	C268.184509,1665.486084 251.723526,1660.754761 234.597717,1655.439819 
z"/>
<path fill="#292526" opacity="1.000000" stroke="none" 
	d="
M879.373413,1990.992188 
	C877.537842,1989.991455 876.304565,1989.426880 875.284058,1988.599854 
	C868.505188,1983.105957 868.727966,1978.375610 876.037231,1973.899658 
	C879.756287,1971.621948 883.919006,1970.526611 888.152405,1969.487305 
	C907.253540,1964.797485 926.307373,1965.107910 945.339722,1969.694580 
	C948.230713,1970.391113 951.100830,1971.435669 953.763184,1972.757324 
	C957.608215,1974.665894 961.844849,1976.583984 961.634460,1981.936890 
	C961.447937,1986.680786 957.691528,1988.473511 954.122864,1990.364746 
	C949.668213,1992.725586 944.853333,1993.845459 939.954041,1994.778198 
	C919.698181,1998.634277 899.704712,1998.147339 879.373413,1990.992188 
z"/>
<path fill="#2A2627" opacity="1.000000" stroke="none" 
	d="
M363.621338,2046.056641 
	C370.522797,2046.551025 376.400238,2047.440796 382.143799,2049.177490 
	C385.764252,2050.271973 389.549347,2051.607422 390.123260,2055.710938 
	C390.807068,2060.599854 386.546967,2062.402100 383.039154,2064.245605 
	C378.909851,2066.415771 374.447540,2067.690674 369.915771,2068.832520 
	C349.706970,2073.925293 329.285278,2074.759033 308.695831,2072.021484 
	C305.441772,2071.588867 302.087433,2070.778320 299.143158,2069.377686 
	C292.445984,2066.192383 292.085419,2061.936279 297.801636,2057.358887 
	C299.889954,2055.686768 302.384003,2054.829834 304.850830,2053.816406 
	C317.957947,2048.432373 331.799164,2047.037964 345.707977,2046.117554 
	C351.340546,2045.744873 357.018372,2046.056152 363.621338,2046.056641 
z"/>
<path fill="#282324" opacity="1.000000" stroke="none" 
	d="
M437.727661,2053.868164 
	C450.784088,2050.503906 463.204315,2048.690918 475.904663,2049.229004 
	C480.209747,2049.411621 484.535614,2049.561035 488.447845,2051.677734 
	C492.832214,2054.050293 493.727112,2057.468506 490.822784,2061.455566 
	C488.429230,2064.741943 484.963440,2066.834473 481.411133,2068.636963 
	C460.186310,2079.407471 437.580719,2083.316895 413.954193,2081.990234 
	C412.973175,2081.934814 411.988495,2081.656982 411.039612,2081.370117 
	C407.578522,2080.322998 403.431458,2079.827881 402.600464,2075.484375 
	C401.800232,2071.301270 404.927765,2068.657959 407.896149,2066.603027 
	C416.710724,2060.501709 426.654785,2056.859619 437.727661,2053.868164 
z"/>
<path fill="#2A2526" opacity="1.000000" stroke="none" 
	d="
M1002.338257,1979.575928 
	C1001.829346,1973.527100 1005.378601,1971.048828 1009.398193,1969.204102 
	C1025.064575,1962.014038 1040.849854,1962.747314 1056.469482,1969.244019 
	C1060.129761,1970.766479 1063.486694,1973.517944 1063.579468,1978.062378 
	C1063.670776,1982.536499 1060.733643,1985.700562 1057.041504,1987.308960 
	C1040.735474,1994.412231 1024.335693,1994.484741 1008.100891,1986.886841 
	C1005.290955,1985.571777 1003.461609,1983.229980 1002.338257,1979.575928 
z"/>
<path fill="#292425" opacity="1.000000" stroke="none" 
	d="
M1119.178101,1957.571655 
	C1130.056641,1956.805542 1139.985840,1957.385254 1149.682495,1960.148682 
	C1156.810791,1962.180298 1160.844971,1965.550171 1160.222046,1969.089600 
	C1159.236084,1974.692627 1154.309814,1975.971924 1149.915161,1977.218262 
	C1134.513916,1981.586060 1119.025513,1981.173462 1103.584717,1977.268677 
	C1101.988647,1976.865112 1100.425171,1976.176880 1098.975220,1975.385010 
	C1096.333496,1973.942261 1093.644531,1972.460083 1093.685303,1968.795288 
	C1093.726074,1965.138672 1096.433105,1963.626465 1099.101685,1962.294678 
	C1105.131104,1959.285278 1111.640991,1958.099731 1119.178101,1957.571655 
z"/>
<path fill="#2B2425" opacity="1.000000" stroke="none" 
	d="
M280.489075,2038.815186 
	C282.888367,2039.530396 284.668884,2039.621582 286.046143,2040.413940 
	C291.631317,2043.626221 291.727631,2047.038696 286.391663,2050.848145 
	C278.332886,2056.601562 268.935181,2058.815674 259.399048,2059.818848 
	C251.898972,2060.607666 244.250259,2060.214355 236.679520,2059.972168 
	C234.119507,2059.890381 231.420898,2059.021973 229.094025,2057.883057 
	C224.818222,2055.790283 224.347046,2051.407227 228.051407,2048.317871 
	C231.649033,2045.317627 236.057358,2043.677612 240.472519,2042.265869 
	C253.259979,2038.177246 266.361481,2037.125366 280.489075,2038.815186 
z"/>
<path fill="#292425" opacity="1.000000" stroke="none" 
	d="
M1186.560547,1946.219604 
	C1194.798950,1944.059326 1202.288818,1943.504028 1209.814087,1945.585449 
	C1211.716064,1946.111694 1213.590698,1946.748291 1215.451904,1947.407349 
	C1220.082764,1949.046997 1224.343750,1951.742310 1224.039795,1957.016113 
	C1223.744995,1962.130005 1219.435547,1964.772949 1214.741333,1966.177612 
	C1204.330688,1969.292236 1193.875732,1969.159790 1183.538208,1965.958862 
	C1178.906616,1964.524780 1174.819458,1961.524658 1174.812500,1956.407104 
	C1174.806152,1951.705444 1178.574707,1948.951294 1183.003296,1947.519531 
	C1183.946533,1947.214722 1184.855957,1946.805542 1186.560547,1946.219604 
z"/>
<path fill="#2C2627" opacity="1.000000" stroke="none" 
	d="
M1283.992432,1937.574585 
	C1287.454468,1946.857300 1286.832764,1949.026611 1279.487427,1951.953735 
	C1268.339966,1956.395874 1256.979248,1956.717773 1245.727173,1952.304443 
	C1241.803467,1950.765625 1237.675537,1949.214111 1237.562988,1943.658081 
	C1237.451538,1938.154053 1241.248657,1935.997559 1245.289551,1934.708618 
	C1258.234497,1930.579224 1271.135742,1929.639404 1283.992432,1937.574585 
z"/>
<path fill="#2D292A" opacity="1.000000" stroke="none" 
	d="
M197.162933,2030.044800 
	C205.818756,2030.372070 213.761414,2028.964355 221.571671,2031.196045 
	C223.828903,2031.841064 226.169968,2032.189453 226.352066,2035.258789 
	C226.514862,2038.002930 224.946899,2039.330688 222.726486,2040.549316 
	C211.115540,2046.921265 198.393234,2048.561768 185.503342,2049.299072 
	C179.928787,2049.618164 174.286377,2049.789307 168.798813,2048.067627 
	C166.796021,2047.439209 164.945129,2046.595703 164.467865,2044.511963 
	C163.856094,2041.841309 165.605438,2040.063599 167.762070,2038.995239 
	C171.306213,2037.239380 174.986847,2035.759033 179.340515,2034.035400 
	C184.755676,2029.510620 190.423691,2029.079590 197.162933,2030.044800 
z"/>
<path fill="#2C2627" opacity="1.000000" stroke="none" 
	d="
M172.647705,2031.527832 
	C166.598373,2032.481201 161.327621,2031.923706 156.136444,2030.763672 
	C153.569946,2030.190308 150.805954,2029.426880 150.421051,2026.149048 
	C150.022385,2022.754028 152.889053,2021.334595 155.121750,2020.437500 
	C171.319412,2013.928955 187.980911,2010.192017 205.559891,2013.334351 
	C208.457687,2013.852417 211.918701,2014.052612 212.180023,2017.996704 
	C212.385498,2021.097778 209.793198,2022.576416 207.404800,2023.753540 
	C204.746231,2025.063721 201.939346,2026.072876 198.549042,2027.519287 
	C190.124908,2031.956177 181.746719,2031.540649 172.647705,2031.527832 
z"/>
<path fill="#2D292A" opacity="1.000000" stroke="none" 
	d="
M161.269775,2010.538574 
	C156.737305,2009.830933 151.383606,2010.906982 150.781082,2005.962891 
	C150.305191,2002.057617 155.122894,2000.623901 158.425812,1999.232788 
	C171.264755,1993.825195 184.783844,1993.349854 198.393036,1994.338867 
	C200.675217,1994.504761 203.946457,1994.975342 204.293823,1998.489990 
	C204.622131,2001.811646 202.099060,2002.935425 199.652435,2004.119263 
	C194.847290,2006.444214 189.786133,2008.070557 184.556061,2008.860229 
	C177.110718,2009.984375 169.666321,2011.505981 161.269775,2010.538574 
z"/>
<path fill="#9BA8A8" opacity="1.000000" stroke="none" 
	d="
M172.662201,2032.124146 
	C179.823166,2029.408081 188.210770,2029.624146 197.053802,2027.735718 
	C197.762177,2028.227905 197.623260,2028.630249 197.708893,2029.630371 
	C192.951996,2033.421143 186.776840,2031.631470 180.850494,2034.020996 
	C178.371353,2031.215454 175.657349,2032.652710 172.662201,2032.124146 
z"/>
<path fill="#668D1C" opacity="1.000000" stroke="none" 
	d="
M286.287903,737.088806 
	C287.667358,736.924377 288.299255,737.983398 288.743195,739.546265 
	C287.078522,739.940979 285.988586,739.445923 286.287903,737.088806 
z"/>
<path fill="#FEFFFF" opacity="1.000000" stroke="none" 
	d="
M979.721802,1038.174194 
	C966.202820,981.637756 977.406921,931.113098 1012.674255,886.232422 
	C1040.621704,850.666931 1077.819946,829.859253 1122.195435,822.567688 
	C1163.450684,815.788818 1202.271729,824.109131 1238.109375,845.380554 
	C1270.575806,864.651062 1294.182861,892.040039 1309.172485,926.662292 
	C1316.469971,943.517334 1320.653198,961.117249 1322.462280,979.571655 
	C1326.464722,1020.398376 1316.340576,1057.523438 1294.120483,1091.266968 
	C1266.347290,1133.443726 1226.836914,1159.421631 1177.139771,1167.291138 
	C1116.040894,1176.965942 1063.565430,1158.270630 1020.772156,1113.390381 
	C1000.609070,1092.244141 987.267090,1067.219604 979.721802,1038.174194 
z"/>
<path fill="#FEFFFF" opacity="1.000000" stroke="none" 
	d="
M449.192505,1045.307129 
	C477.172363,990.356506 521.432800,957.870361 581.174438,948.605408 
	C655.772278,937.036499 728.728333,977.161072 761.667114,1042.581299 
	C777.462036,1073.951660 783.265442,1106.947021 779.486755,1141.291626 
	C775.499573,1177.531250 760.874573,1209.550293 736.389099,1237.038452 
	C713.374817,1262.874878 685.254700,1280.430298 652.179565,1289.595703 
	C611.294006,1300.925415 571.286011,1297.566895 532.721680,1279.483887 
	C496.171936,1262.345459 468.095032,1235.900513 450.336761,1199.833740 
	C425.367615,1149.122070 424.676819,1097.496216 449.192505,1045.307129 
z"/>
<path fill="#FDFEFE" opacity="1.000000" stroke="none" 
	d="
M988.455322,1218.533936 
	C1021.765259,1217.115479 1054.568726,1218.590576 1086.832520,1226.163940 
	C1109.050659,1231.379272 1130.202271,1239.078735 1148.040771,1253.950684 
	C1157.817749,1262.101807 1164.382202,1272.198120 1166.169678,1285.053345 
	C1173.505859,1337.813232 1133.439575,1368.052612 1098.067993,1375.851685 
	C1085.076294,1378.716431 1071.804688,1379.316650 1058.581665,1380.573608 
	C1038.930420,1382.441528 1019.276611,1382.390015 999.779907,1381.339478 
	C983.147095,1380.443481 966.561157,1380.653198 949.959900,1380.223145 
	C928.960022,1379.679077 909.191895,1385.167236 889.938782,1392.912964 
	C866.346069,1402.404785 845.074768,1416.128174 823.702087,1429.626465 
	C811.247864,1437.492065 798.497681,1444.549927 783.723572,1446.964233 
	C750.688354,1452.362915 708.808716,1439.394287 690.861389,1406.372925 
	C680.099548,1386.572266 680.312378,1366.320068 688.892883,1346.016724 
	C696.477234,1328.070190 709.463318,1314.298828 724.860596,1302.825195 
	C748.825195,1284.967163 775.211365,1271.896606 804.865479,1263.964478 
	C806.973877,1264.090576 808.252747,1264.603394 809.047546,1265.705444 
	C823.856384,1286.240479 845.346497,1292.110596 869.098450,1293.636841 
	C903.664490,1295.858032 935.739258,1288.807129 964.552856,1269.057739 
	C974.016541,1262.571289 981.379578,1254.346069 986.352417,1243.693970 
	C990.184082,1235.486328 987.820923,1227.389160 988.455322,1218.533936 
z"/>
<path fill="#242122" opacity="1.000000" stroke="none" 
	d="
M988.349854,1217.420166 
	C996.447388,1238.279175 987.016907,1253.287720 972.566284,1266.001343 
	C956.281128,1280.328857 936.612976,1288.290649 915.614441,1292.742310 
	C889.702087,1298.235718 863.840027,1299.097168 838.298462,1290.214355 
	C824.703613,1285.486450 813.303345,1278.180542 805.978760,1264.497070 
	C800.803467,1244.772705 808.652100,1230.308105 822.517090,1218.134888 
	C838.630676,1203.987549 857.774231,1196.030762 878.401611,1191.280151 
	C903.372253,1185.529419 928.368896,1184.691650 953.133972,1192.203979 
	C967.404968,1196.533081 980.050720,1203.513916 988.349854,1217.420166 
z"/>
<path fill="#FCFEFF" opacity="1.000000" stroke="none" 
	d="
M1002.857239,1454.073730 
	C998.144958,1474.935425 980.377686,1480.874878 962.248779,1477.473877 
	C955.271545,1476.164917 950.913147,1470.994873 947.608704,1464.888062 
	C939.439575,1449.791138 935.252258,1433.383545 932.162720,1416.718018 
	C929.473572,1402.212524 929.813721,1401.340332 944.626038,1400.516235 
	C961.543762,1399.575073 978.551453,1400.289917 995.519531,1400.190063 
	C1000.056030,1400.163330 1001.457825,1403.380737 1001.500549,1406.671997 
	C1001.702393,1422.227417 1006.006836,1437.638916 1002.857239,1454.073730 
z"/>
<path fill="#FCFEFF" opacity="1.000000" stroke="none" 
	d="
M849.189941,1456.606934 
	C844.208496,1440.237549 844.189514,1443.531250 856.469666,1435.742798 
	C869.925781,1427.208374 883.783264,1419.347290 898.646851,1413.387329 
	C902.237183,1411.947510 904.734741,1411.198853 906.278809,1415.904663 
	C911.252991,1431.064575 915.542786,1446.343628 915.755798,1462.452515 
	C915.786194,1464.752686 915.483582,1467.081177 915.105469,1469.358398 
	C913.431396,1479.441650 909.128479,1487.720215 898.864624,1491.402588 
	C886.866272,1495.707520 875.963623,1493.344116 866.473083,1485.045532 
	C857.974731,1477.614380 853.079224,1467.838989 849.189941,1456.606934 
z"/>
<path fill="#030607" opacity="1.000000" stroke="none" 
	d="
M1270.450806,454.517883 
	C1275.248291,440.492310 1280.970337,427.807098 1289.384155,416.474884 
	C1296.623779,406.723877 1305.238403,398.635284 1316.376465,393.372559 
	C1330.121582,386.877991 1343.984741,386.740021 1357.965088,392.220642 
	C1369.251953,396.645355 1375.409912,405.048767 1376.413696,417.167938 
	C1376.911377,423.175049 1376.767212,429.199860 1375.318481,435.030914 
	C1369.430298,458.730255 1357.141113,478.968445 1340.843018,498.543915 
	C1339.498291,495.377869 1340.195923,493.352509 1340.699585,491.351135 
	C1345.400513,472.671661 1350.659058,454.127197 1352.973267,434.912415 
	C1355.113525,417.142334 1351.139648,412.698456 1331.381714,416.015228 
	C1324.318726,417.200958 1318.756714,421.754333 1313.544556,426.480042 
	C1304.344849,434.821228 1296.946655,444.680115 1290.477295,455.171631 
	C1282.802368,467.618195 1275.628052,480.373352 1268.236084,492.994354 
	C1266.785767,495.470673 1265.799194,498.298828 1262.407593,501.064423 
	C1262.878174,484.553253 1265.846191,469.803894 1270.450806,454.517883 
z"/>
<path fill="#252426" opacity="1.000000" stroke="none" 
	d="
M302.477051,657.196289 
	C299.480438,646.134644 296.683777,635.932861 299.577972,625.038025 
	C304.853241,605.179871 324.120941,596.106750 342.589905,605.063293 
	C350.562958,608.929749 356.953979,614.787476 362.438843,621.530151 
	C383.974854,648.005066 395.921906,678.746216 402.064392,711.991882 
	C402.233826,712.908813 401.920197,713.914917 401.824463,714.960083 
	C398.447144,714.801941 397.594238,711.865234 396.140533,709.885986 
	C381.749420,690.292053 367.520081,670.579346 353.135529,650.980591 
	C348.001007,643.984924 342.267578,637.454468 335.516113,631.964783 
	C327.231903,625.228882 323.662781,626.601929 321.442505,636.854980 
	C319.261536,646.926453 321.637817,656.761719 323.023743,666.582275 
	C324.594574,677.713379 326.997040,688.727112 329.386810,701.683044 
	C316.646454,687.968506 308.704773,673.568542 302.477051,657.196289 
z"/>
<path fill="#252122" opacity="1.000000" stroke="none" 
	d="
M1170.959473,1021.237061 
	C1186.060059,1043.053345 1183.886108,1076.807251 1161.939453,1095.149780 
	C1144.049438,1110.101929 1123.911133,1113.526001 1102.513550,1104.100952 
	C1081.851196,1094.999756 1071.111572,1078.599731 1069.597900,1055.912598 
	C1067.605347,1026.046631 1090.030518,999.628479 1121.351807,997.656982 
	C1141.667603,996.378235 1158.239624,1004.212280 1170.959473,1021.237061 
z"/>
<path fill="#252122" opacity="1.000000" stroke="none" 
	d="
M576.720398,1128.270020 
	C594.939941,1125.530396 611.190979,1127.562378 625.481689,1139.112793 
	C643.435486,1153.623901 650.643921,1178.528687 643.013794,1201.207275 
	C635.701782,1222.940430 614.587891,1237.325073 591.419006,1238.274780 
	C564.028625,1239.397461 533.520996,1217.231079 534.451965,1180.939087 
	C535.036377,1158.159790 548.970947,1136.562622 576.720398,1128.270020 
z"/>
<path fill="#E1CAA3" opacity="1.000000" stroke="none" 
	d="
M726.482056,1334.532715 
	C746.367676,1315.679443 769.046753,1302.826416 793.993225,1293.704590 
	C796.716309,1292.708862 798.490051,1292.376953 800.841309,1295.015259 
	C811.615417,1307.104248 825.480652,1314.656860 841.160645,1317.139648 
	C881.945374,1323.597412 922.033081,1321.320923 959.867065,1302.873169 
	C981.701599,1292.226562 997.194031,1275.651245 1004.311462,1251.904907 
	C1006.741577,1243.797241 1006.940613,1243.768066 1015.231140,1243.763306 
	C1045.640869,1243.745850 1075.496216,1247.333374 1104.270996,1257.742554 
	C1112.756592,1260.812134 1120.626099,1265.039673 1128.176025,1270.004272 
	C1138.821289,1277.004150 1142.728882,1287.244629 1141.706299,1299.202393 
	C1140.343384,1315.136841 1133.492310,1328.401611 1120.178345,1337.993286 
	C1108.521606,1346.390869 1095.429199,1350.437988 1081.331543,1352.194580 
	C1048.818115,1356.245972 1016.189575,1353.575317 983.619263,1354.140381 
	C968.638733,1354.400269 953.616028,1353.430176 938.669495,1354.169922 
	C918.245422,1355.180786 898.918091,1361.333130 880.044312,1368.967285 
	C856.479492,1378.498657 835.081238,1391.939087 813.736755,1405.482788 
	C802.492859,1412.617310 791.336609,1419.993774 777.588135,1421.284424 
	C758.071533,1423.116455 739.488647,1420.026001 724.258850,1407.006714 
	C704.224915,1389.880981 704.083069,1368.271362 717.357361,1345.987549 
	C719.714966,1342.029785 723.080200,1338.672119 726.482056,1334.532715 
z"/>
</svg>